<?xml version="1.0" encoding="UTF-8" standalone="no"?>
<svg
   xmlns:dc="http://purl.org/dc/elements/1.1/"
   xmlns:cc="http://creativecommons.org/ns#"
   xmlns:rdf="http://www.w3.org/1999/02/22-rdf-syntax-ns#"
   xmlns:svg="http://www.w3.org/2000/svg"
   xmlns="http://www.w3.org/2000/svg"
   viewBox="0 0 512 512"
   version="1.1"
   id="svg3098"
   height="546.13336"
   width="546.13336">
  <defs
     id="defs3100" />
  <metadata
     id="metadata3103">
    <rdf:RDF>
      <cc:Work
         rdf:about="">
        <dc:format>image/svg+xml</dc:format>
        <dc:type
           rdf:resource="http://purl.org/dc/dcmitype/StillImage" />
        <dc:title></dc:title>
      </cc:Work>
    </rdf:RDF>
  </metadata>
  <g
     transform="translate(0,-540.36218)"
     id="layer1">
    <path
       id="path3285"
       d="m 163.53656,1000.8113 60.41833,36.8789 c 0,0 39.04368,22.1832 65.60018,-4.3733 53.8274,-53.82741 202.26734,-211.01393 202.26734,-211.01393 0,0 13.6667,-10.38668 4.37332,-29.52008 -12.17866,-25.07354 -119.74891,-223.04064 -119.74891,-223.04064 0,0 -7.57564,-14.08073 -29.44236,-16.26739 -21.86673,-2.18668 -69.4761,-6.69268 -69.4761,-6.69268 0,0 -11.89404,-3.93183 -31.70675,10.93336 -16.05459,12.04556 -202.267229,185.86721 -202.267229,185.86721 0,0 -50.2934552,36.08011 -14.213365,86.37357 18.040046,25.14674 83.997844,112.46053 111.194584,146.62729 10.76711,13.52653 23.00096,24.22769 23.00096,24.22769 z"
       style="fill:#ffffff;stroke:#000000;stroke-width:8;stroke-linecap:butt;stroke-linejoin:miter;stroke-miterlimit:4;stroke-dasharray:none;stroke-opacity:1" />
    <path
       id="path3283"
       d="m 376.40897,569.36708 c -25.69339,-11.48004 -40.6083,4.3918 -40.6083,4.3918 0,0 -203.23963,185.62305 -227.97899,207.27001 -24.739387,21.64696 -11.276356,53.13393 -11.276356,53.13393 L 220.64679,1017.2534 c 0,0 14.85446,20.7182 32.34785,28.3716"
       style="fill:none;stroke:#000000;stroke-width:8;stroke-linecap:butt;stroke-linejoin:miter;stroke-miterlimit:4;stroke-dasharray:none;stroke-opacity:1" />
    <path
       id="path3293"
       d="m 181.52956,676.15766 a 9.7089313,11.827919 52.142704 0 1 -14.29706,-3.4172 9.7089313,11.827919 52.142704 0 1 6.40454,-14.53356 9.7089313,11.827919 52.142704 0 1 14.29709,3.4172 9.7089313,11.827919 52.142704 0 1 -6.40457,14.53356 z"
       style="fill:#d40000;fill-opacity:1;stroke:none;stroke-width:2.92410135" />
  </g>
</svg>
